<?xml version="1.0" encoding="utf-8"?>
<!-- Generator: Adobe Illustrator 24.1.0, SVG Export Plug-In . SVG Version: 6.00 Build 0)  -->
<svg version="1.1" id="Layer_1" xmlns="http://www.w3.org/2000/svg" xmlns:xlink="http://www.w3.org/1999/xlink" x="0px" y="0px"
	 viewBox="0 0 300 330" style="enable-background:new 0 0 300 330;" xml:space="preserve">
<style type="text/css">
	.st0{display:none;}
	.st1{fill:#D80B0B;}
	.st2{fill:#963409;}
	.st3{fill:#288203;}
</style>
<g id="Layer_1_1_" class="st0">
	
		<image style="display:inline;overflow:visible;enable-background:new    ;" width="303" height="166" xlink:href="89FAED72.jpeg"  transform="matrix(1 0 0 1 -2 59.2785)">
	</image>
</g>
<g id="Layer_2_1_">
	<path class="st1" d="M208.3,84.9c173.7-10.9,66,295.5-57.2,234.6C22.3,374.6-75.7,67.6,87.7,84.9C124.2,96.1,164.4,95.9,208.3,84.9
		z"/>
	<path class="st2" d="M140.8,88.8H158c4.5-32.1,11-60.6,32-64.6c-15.3-16.5-35-25.6-24.6,4.4C167.9,36.5,151.1,84.2,140.8,88.8z"/>
	<path class="st3" d="M153.1,59.2c-58.2,7.9-128.9-28.4-106-48.3C86.5-15.7,145.2,17.8,153.1,59.2z"/>
</g>
</svg>
