<?xml version="1.0" encoding="utf-8"?>
<!-- Generator: Adobe Illustrator 24.1.0, SVG Export Plug-In . SVG Version: 6.00 Build 0)  -->
<svg version="1.1" id="Layer_1" xmlns="http://www.w3.org/2000/svg" xmlns:xlink="http://www.w3.org/1999/xlink" x="0px" y="0px"
	 viewBox="0 0 300 330" style="enable-background:new 0 0 300 330;" xml:space="preserve">
<style type="text/css">
	.st0{display:none;}
	.st1{fill:#D8AE00;}
	.st2{fill:#963409;}
	.st3{fill:#288203;}
</style>
<g id="Layer_1_1_" class="st0">
	
		<image style="display:inline;overflow:visible;enable-background:new    ;" width="303" height="166" xlink:href="BF2F0923.jpeg"  transform="matrix(1 0 0 1 -2 82)">
	</image>
</g>
<g id="Layer_2_1_">
	<path class="st1" d="M207.1,86c172.6-10.8,65.6,293.5-56.8,233C22.4,373.8-75,68.8,87.4,86C123.6,97.1,163.5,96.9,207.1,86z"/>
	<path class="st2" d="M140,89.8h17.1c4.4-31.9,10.9-60.1,31.8-64.1c-15.2-16.4-34.8-25.5-24.5,4.4C167,37.9,150.3,85.3,140,89.8z"/>
	<path class="st3" d="M152.3,60.4c-57.8,7.8-128-28.2-105.2-48C86.2-14,144.4,19.3,152.3,60.4z"/>
</g>
</svg>
