<?xml version="1.0" encoding="utf-8"?>
<!-- Generator: Adobe Illustrator 24.1.0, SVG Export Plug-In . SVG Version: 6.00 Build 0)  -->
<svg version="1.1" id="Layer_1" xmlns="http://www.w3.org/2000/svg" xmlns:xlink="http://www.w3.org/1999/xlink" x="0px" y="0px"
	 viewBox="0 0 360 330" style="enable-background:new 0 0 360 330;" xml:space="preserve">
<style type="text/css">
	.st0{display:none;}
	.st1{fill:#D80B0B;}
	.st2{fill:#963409;}
	.st3{fill:#288203;}
	.st4{fill:#C10000;}
	.st5{fill:#4A9600;}
	.st6{fill:#0E1605;}
	.st7{fill:#417F00;}
</style>
<g id="Layer_1_1_" class="st0">
	
		<image style="display:inline;overflow:visible;enable-background:new    ;" width="303" height="166" xlink:href="D566DD49.jpeg"  transform="matrix(1 0 0 1 58 82)">
	</image>
</g>
<g id="Layer_2_1_">
	<path class="st1" d="M267.6,85.8c173-10.9,65.8,294.3-56.9,233.7C82.5,374.4-15.2,68.6,147.6,85.8C183.9,97,224,96.8,267.6,85.8z"
		/>
	<path class="st2" d="M200.4,89.6h17.2c4.4-31.9,11-60.3,31.9-64.3C234.3,8.8,214.6-0.3,225,29.7C227.4,37.5,210.7,85,200.4,89.6z"
		/>
	<path class="st3" d="M212.7,60.1C154.8,68,84.3,31.8,107.2,12C146.4-14.5,204.8,18.9,212.7,60.1z"/>
	<circle class="st4" cx="122.6" cy="181.2" r="34.6"/>
	<path class="st5" d="M146.8,205.9c-10.9,6.2-16.2,10.2-29.8,9.8c-9.6-24.8-18.9-44.2-37.7-69c-6.3-8.2-15.4-11.8-24.7-7.2
		C-69.1,200.7,62.7-39.1,146.8,205.9z"/>
	<circle class="st6" cx="14.2" cy="124.4" r="2.9"/>
	<circle class="st6" cx="26" cy="125.5" r="2.9"/>
	<path class="st7" d="M107.9,194.2l30-11.9l3.2,7.9l-29.6,12C110.1,199.2,108.9,196.4,107.9,194.2z"/>
	<path class="st7" d="M94.4,168.8l31.5-12.5c1.2,2.4,2.5,5,3.9,7.7l-31,12.5C97.7,174.2,96.2,171.6,94.4,168.8z"/>
	<path class="st7" d="M78.7,146.3l33-13.3c1.2,2.4,3.4,4.4,4.8,7.1l-32.4,13.6C82.3,150.3,79.7,147.9,78.7,146.3z"/>
	<circle class="st4" cx="272.6" cy="226.7" r="38.9"/>
	<path class="st5" d="M258.2,263.9c-6.7-2.8-15.5-10.8-19.6-19c19.6-17.5,41.7-40.4,61.6-72.7c6.6-11.6,28.2,1,19.5,15.4
		C300.5,222.7,281.1,249.2,258.2,263.9z"/>
	<path class="st7" d="M252.5,231.5l23.2,18.4l-6.5,5.9L246,238.1C248.3,235.6,251.1,233.5,252.5,231.5z"/>
	<path class="st7" d="M268.7,214.8l22.6,17.1l-5.6,7.2l-23.2-17.5C264.7,219.2,267.2,216.9,268.7,214.8z"/>
	<path class="st7" d="M282.2,198.4l22,15.5l-5.3,7.9l-22.6-16C278.6,203.2,280.8,200.3,282.2,198.4z"/>
	<path class="st7" d="M294.9,180.5l20.8,14.3l-4.8,8.2l-21-14.9C291.6,185.5,293.2,182.4,294.9,180.5z"/>
</g>
</svg>
