<?xml version="1.0" encoding="utf-8"?>
<!-- Generator: Adobe Illustrator 24.1.0, SVG Export Plug-In . SVG Version: 6.00 Build 0)  -->
<svg version="1.1" id="Layer_1" xmlns="http://www.w3.org/2000/svg" xmlns:xlink="http://www.w3.org/1999/xlink" x="0px" y="0px"
	 viewBox="0 0 50 50" style="enable-background:new 0 0 50 50;" xml:space="preserve">
<style type="text/css">
	.st0{fill:none;stroke:#444444;stroke-width:4;stroke-miterlimit:10;}
</style>
<path class="st0" d="M10.7,16l-2.5-3.6c-0.4-0.6-0.3-1.4,0.2-1.9l2.1-2.1c0.5-0.5,1.3-0.6,1.9-0.2l3.5,2.5c0.4,0.3,1,0.4,1.4,0.2
	l3-1.3c0.5-0.2,0.8-0.6,0.9-1.1L22,4.2C22.1,3.5,22.7,3,23.4,3h3c0.7,0,1.3,0.5,1.5,1.2l0.7,4.3c0.1,0.5,0.4,0.9,0.9,1.1l3,1.2
	c0.5,0.2,1,0.1,1.4-0.2l3.6-2.5c0.6-0.4,1.4-0.3,1.9,0.2l2.1,2.1c0.5,0.5,0.6,1.3,0.2,1.9l-2.5,3.5c-0.3,0.4-0.4,1-0.2,1.4l1.3,3
	c0.2,0.5,0.6,0.8,1.1,0.9l4.3,0.7c0.7,0.1,1.2,0.7,1.2,1.5v3c0,0.7-0.5,1.3-1.2,1.5l-4.3,0.7c-0.5,0.1-0.9,0.4-1.1,0.9l-1.2,3
	c-0.2,0.5-0.1,1,0.2,1.4l2.5,3.6c0.4,0.6,0.3,1.4-0.2,1.9l-2.1,2.1c-0.5,0.5-1.3,0.6-1.9,0.2l-3.5-2.5c-0.4-0.3-1-0.4-1.4-0.2
	l-3,1.3c-0.5,0.2-0.8,0.6-0.9,1.1L28,45.8c-0.1,0.7-0.7,1.2-1.5,1.2h-3c-0.7,0-1.3-0.5-1.5-1.2l-0.7-4.3c-0.1-0.5-0.4-0.9-0.9-1.1
	l-3-1.2c-0.5-0.2-1-0.1-1.4,0.2l-3.6,2.5c-0.6,0.4-1.4,0.3-1.9-0.2l-2.1-2.1c-0.5-0.5-0.6-1.3-0.2-1.9l2.5-3.5
	c0.3-0.4,0.4-1,0.2-1.4l-1.3-3c-0.2-0.5-0.6-0.8-1.1-0.9L4.2,28C3.5,27.9,3,27.3,3,26.6v-3c0-0.7,0.5-1.3,1.2-1.5l4.3-0.7
	c0.5-0.1,0.9-0.4,1.1-0.9l1.2-3C11,16.9,11,16.4,10.7,16z"/>
<circle class="st0" cx="25" cy="25" r="7"/>
</svg>
