<?xml version="1.0" encoding="utf-8"?>
<!-- Generator: Adobe Illustrator 24.1.0, SVG Export Plug-In . SVG Version: 6.00 Build 0)  -->
<svg version="1.1" id="Layer_1" xmlns="http://www.w3.org/2000/svg" xmlns:xlink="http://www.w3.org/1999/xlink" x="0px" y="0px"
	 viewBox="0 0 300 330" style="enable-background:new 0 0 300 330;" xml:space="preserve">
<style type="text/css">
	.st0{fill:#DDDDDD;stroke:#6D6D6D;stroke-width:3.3958;stroke-miterlimit:10;}
	.st1{fill:url(#SVGID_1_);}
	.st2{fill:url(#SVGID_2_);}
	.st3{fill:#FFFFFF;}
	.st4{fill:#1ABC9C;}
</style>
<path class="st0" d="M165.6,327.8h-31.2c-20,0-36.3-17.2-36.3-38.2V16c0-6,4.7-10.9,10.4-10.9h80.4c7.2,0,13,6.2,13,13.7v270.9
	C201.9,310.6,185.6,327.8,165.6,327.8z"/>
<linearGradient id="SVGID_1_" gradientUnits="userSpaceOnUse" x1="149.9997" y1="3.3011" x2="150.0003" y2="14.9702">
	<stop  offset="0" style="stop-color:#B6B6B6"/>
	<stop  offset="1" style="stop-color:#383838"/>
</linearGradient>
<path class="st1" d="M202.3,16.1H97.7c-3.4,0-6.2-2.8-6.2-6.2V8.4c0-3.4,2.8-6.2,6.2-6.2h104.6c3.4,0,6.2,2.8,6.2,6.2v1.5
	C208.5,13.3,205.7,16.1,202.3,16.1z"/>
<linearGradient id="SVGID_2_" gradientUnits="userSpaceOnUse" x1="149.8387" y1="323.9222" x2="150.3492" y2="75.8726">
	<stop  offset="0" style="stop-color:#1ABC9C"/>
	<stop  offset="0.5561" style="stop-color:#22B478"/>
	<stop  offset="1" style="stop-color:#27AE60"/>
</linearGradient>
<path class="st2" d="M200.2,92.7v198.4c-0.6,15.2-10.5,32.6-32.3,35h-36.9c-1.6,0-3.3-0.2-4.8-0.7c-17.6-5.1-25.6-17.5-26.2-34.1
	V92.7H200.2z"/>
<ellipse class="st3" cx="155.5" cy="307.5" rx="1.1" ry="1.2"/>
<ellipse class="st3" cx="141.2" cy="285.4" rx="1.1" ry="1.2"/>
<ellipse class="st3" cx="163.2" cy="268" rx="2.2" ry="2.3"/>
<ellipse class="st3" cx="143.4" cy="237.8" rx="3.3" ry="3.5"/>
<ellipse class="st3" cx="118" cy="243.6" rx="2.2" ry="2.3"/>
<ellipse class="st3" cx="162.1" cy="213.5" rx="1.1" ry="1.2"/>
<ellipse class="st3" cx="131.8" cy="196.6" rx="1.7" ry="1.7"/>
<ellipse class="st3" cx="151.7" cy="158.3" rx="5" ry="5.2"/>
<ellipse class="st3" cx="167.1" cy="125.8" rx="1.7" ry="1.7"/>
<ellipse class="st3" cx="116.9" cy="117.1" rx="1.1" ry="1.2"/>
<ellipse class="st3" cx="184.8" cy="182.7" rx="1.7" ry="1.7"/>
<ellipse class="st4" cx="123" cy="62" rx="7.2" ry="7.5"/>
<ellipse class="st4" cx="165.5" cy="77.6" rx="2.2" ry="2.3"/>
<ellipse class="st4" cx="154.4" cy="40.5" rx="7.7" ry="8.1"/>
</svg>
